<?xml version="1.0" encoding="UTF-8" standalone="no"?>
<!-- Created with Inkscape (http://www.inkscape.org/) -->

<svg
   xmlns:dc="http://purl.org/dc/elements/1.1/"
   xmlns:cc="http://creativecommons.org/ns#"
   xmlns:rdf="http://www.w3.org/1999/02/22-rdf-syntax-ns#"
   xmlns:svg="http://www.w3.org/2000/svg"
   xmlns="http://www.w3.org/2000/svg"
   xmlns:sodipodi="http://sodipodi.sourceforge.net/DTD/sodipodi-0.dtd"
   xmlns:inkscape="http://www.inkscape.org/namespaces/inkscape"
   width="210mm"
   height="297mm"
   viewBox="0 0 210 297"
   version="1.1"
   id="svg8"
   inkscape:version="0.92.2 (5c3e80d, 2017-08-06)"
   sodipodi:docname="icon.svg">
  <defs
     id="defs2" />
  <sodipodi:namedview
     id="base"
     pagecolor="#ffffff"
     bordercolor="#666666"
     borderopacity="1.0"
     inkscape:pageopacity="0.0"
     inkscape:pageshadow="2"
     inkscape:zoom="0.96661074"
     inkscape:cx="401.42857"
     inkscape:cy="637.14286"
     inkscape:document-units="mm"
     inkscape:current-layer="layer1"
     showgrid="false"
     inkscape:snap-text-baseline="true"
     inkscape:window-width="1861"
     inkscape:window-height="1025"
     inkscape:window-x="59"
     inkscape:window-y="27"
     inkscape:window-maximized="1" />
  <metadata
     id="metadata5">
    <rdf:RDF>
      <cc:Work
         rdf:about="">
        <dc:format>image/svg+xml</dc:format>
        <dc:type
           rdf:resource="http://purl.org/dc/dcmitype/StillImage" />
        <dc:title></dc:title>
      </cc:Work>
    </rdf:RDF>
  </metadata>
  <g
     inkscape:label="Layer 1"
     inkscape:groupmode="layer"
     id="layer1">
    <rect
       id="rect12"
       width="180.67261"
       height="180.67261"
       x="14.363095"
       y="43.755951"
       style="stroke-width:0.26458332;fill:#000000" />
    <path
       style="fill:none;stroke-width:2.85714293"
       d="m 56.571429,507.09111 v -340 h 340.000001 340 v 340 340 h -340 -340.000001 z"
       id="path18"
       inkscape:connector-curvature="0"
       transform="scale(0.26458333)" />
    <path
       style="fill:none;stroke-width:2.85714293"
       d="m 56.571429,507.09111 v -340 h 340.000001 340 v 340 340 h -340 -340.000001 z"
       id="path20"
       inkscape:connector-curvature="0"
       transform="scale(0.26458333)" />
    <path
       style="fill:none;stroke-width:2.85714293"
       d="m 56.571429,507.09111 v -340 h 340.000001 340 v 340 340 h -340 -340.000001 z"
       id="path22"
       inkscape:connector-curvature="0"
       transform="scale(0.26458333)" />
    <path
       style="fill:none;stroke-width:2.85714293"
       d="m 56.571429,507.09111 v -340 h 340.000001 340 v 340 340 h -340 -340.000001 z"
       id="path24"
       inkscape:connector-curvature="0"
       transform="scale(0.26458333)" />
    <path
       style="fill:none;stroke-width:2.85714293"
       d="m 56.571429,507.09111 v -340 h 340.000001 340 v 340 340 h -340 -340.000001 z"
       id="path26"
       inkscape:connector-curvature="0"
       transform="scale(0.26458333)" />
    <path
       style="fill:#ffffff;stroke-width:2.85714293"
       d="m 56.571429,507.09111 v -340 h 340.000001 340 v 340 340 h -340 -340.000001 z"
       id="path30"
       inkscape:connector-curvature="0"
       transform="scale(0.26458333)" />
    <ellipse
       style="fill:#cccccc;stroke-width:0.38674358"
       id="path32"
       cy="133.71429"
       cx="104.6994"
       rx="89.58036"
       ry="89.958336" />
    <rect
       style="fill:#999999;fill-opacity:1;stroke-width:0.2251506"
       id="rect66"
       width="27.214281"
       height="124.73214"
       x="58.964287"
       y="73.238091" />
    <rect
       style="fill:#999999;fill-opacity:1;stroke-width:0.23824415"
       id="rect68"
       width="97.51786"
       height="22.678576"
       x="58.964287"
       y="175.29166" />
    <rect
       style="fill:#999999;fill-opacity:1;stroke-width:0.26458332"
       id="rect70"
       width="94.494049"
       height="24.190477"
       x="58.964287"
       y="123.88689" />
    <rect
       style="fill:#999999;fill-opacity:1;stroke-width:0.26458332"
       id="rect72"
       width="95.25"
       height="22.678581"
       x="58.964287"
       y="73.238091" />
    <path
       style="fill:#b3b3b3;fill-opacity:1;stroke-width:0.02961693"
       id="path100"
       sodipodi:type="arc"
       sodipodi:cx="68.978134"
       sodipodi:cy="82.94883"
       sodipodi:rx="3.5583954"
       sodipodi:ry="3.8321178"
       sodipodi:start="0"
       sodipodi:end="6.2820745"
       d="m 72.53653,82.94883 a 3.5583954,3.8321178 0 0 1 -3.557408,3.832117 3.5583954,3.8321178 0 0 1 -3.559383,-3.829989 3.5583954,3.8321178 0 0 1 3.555431,-3.834245 3.5583954,3.8321178 0 0 1 3.561357,3.82786 l -3.558393,0.0043 z" />
    <path
       style="fill:#b3b3b3;fill-opacity:1;stroke-width:0.02961693"
       id="path100-1"
       sodipodi:type="arc"
       sodipodi:cx="82.116814"
       sodipodi:cy="82.948822"
       sodipodi:rx="3.5583954"
       sodipodi:ry="3.8321178"
       sodipodi:start="0"
       sodipodi:end="6.2820745"
       d="m 85.675209,82.948822 a 3.5583954,3.8321178 0 0 1 -3.557407,3.832118 3.5583954,3.8321178 0 0 1 -3.559383,-3.82999 3.5583954,3.8321178 0 0 1 3.55543,-3.834244 3.5583954,3.8321178 0 0 1 3.561358,3.827859 l -3.558393,0.0043 z" />
    <path
       style="fill:#b3b3b3;fill-opacity:1;stroke-width:0.02961693"
       id="path100-1-3"
       sodipodi:type="arc"
       sodipodi:cx="38.321182"
       sodipodi:cy="94.992622"
       sodipodi:rx="3.5583954"
       sodipodi:ry="3.8321178"
       sodipodi:start="0"
       sodipodi:end="6.2820745"
       d="m 41.879578,94.992622 a 3.5583954,3.8321178 0 0 1 -3.557408,3.832118 3.5583954,3.8321178 0 0 1 -3.559383,-3.829989 3.5583954,3.8321178 0 0 1 3.555431,-3.834245 3.5583954,3.8321178 0 0 1 3.561357,3.82786 l -3.558393,0.0043 z" />
  </g>
</svg>
