<?xml version="1.0" encoding="UTF-8" standalone="no"?>
<!-- Created with Inkscape (http://www.inkscape.org/) -->

<svg
   xmlns:dc="http://purl.org/dc/elements/1.1/"
   xmlns:cc="http://creativecommons.org/ns#"
   xmlns:rdf="http://www.w3.org/1999/02/22-rdf-syntax-ns#"
   xmlns:svg="http://www.w3.org/2000/svg"
   xmlns="http://www.w3.org/2000/svg"
   xmlns:sodipodi="http://sodipodi.sourceforge.net/DTD/sodipodi-0.dtd"
   xmlns:inkscape="http://www.inkscape.org/namespaces/inkscape"
   width="625.28772mm"
   height="281.69394mm"
   viewBox="0 0 625.28774 281.69393"
   version="1.1"
   id="svg8"
   inkscape:version="0.92.2 (5c3e80d, 2017-08-06)"
   sodipodi:docname="title.svg"
   inkscape:export-filename="/home/nicki/Projects/WebstormProjects/EAuthenticator/img/title.png"
   inkscape:export-xdpi="42.175735"
   inkscape:export-ydpi="42.175735">
  <defs
     id="defs2" />
  <sodipodi:namedview
     id="base"
     pagecolor="#ffffff"
     bordercolor="#666666"
     borderopacity="1.0"
     inkscape:pageopacity="0.0"
     inkscape:pageshadow="2"
     inkscape:zoom="0.21043191"
     inkscape:cx="602.30445"
     inkscape:cy="640.81595"
     inkscape:document-units="mm"
     inkscape:current-layer="layer1"
     showgrid="false"
     inkscape:snap-text-baseline="true"
     inkscape:window-width="1863"
     inkscape:window-height="1025"
     inkscape:window-x="57"
     inkscape:window-y="27"
     inkscape:window-maximized="1"
     inkscape:measure-start="399.179,958.742"
     inkscape:measure-end="388.487,278" />
  <metadata
     id="metadata5">
    <rdf:RDF>
      <cc:Work
         rdf:about="">
        <dc:format>image/svg+xml</dc:format>
        <dc:type
           rdf:resource="http://purl.org/dc/dcmitype/StillImage" />
        <dc:title />
      </cc:Work>
    </rdf:RDF>
  </metadata>
  <g
     inkscape:label="Layer 1"
     inkscape:groupmode="layer"
     id="layer1"
     transform="translate(189.89896,-43.755951)">
    <rect
       id="rect12"
       width="180.67261"
       height="180.67261"
       x="14.363095"
       y="43.755951"
       style="fill:none;stroke-width:0.26458332"
       inkscape:export-xdpi="96"
       inkscape:export-ydpi="96" />
    <path
       style="fill:none;stroke-width:2.85714293"
       d="m 56.571429,507.09111 v -340 h 340.000001 340 v 340 340 h -340 -340.000001 z"
       id="path18"
       inkscape:connector-curvature="0"
       transform="scale(0.26458333)" />
    <path
       style="fill:none;stroke-width:2.85714293"
       d="m 56.571429,507.09111 v -340 h 340.000001 340 v 340 340 h -340 -340.000001 z"
       id="path20"
       inkscape:connector-curvature="0"
       transform="scale(0.26458333)" />
    <path
       style="fill:none;stroke-width:2.85714293"
       d="m 56.571429,507.09111 v -340 h 340.000001 340 v 340 340 h -340 -340.000001 z"
       id="path22"
       inkscape:connector-curvature="0"
       transform="scale(0.26458333)" />
    <path
       style="fill:none;stroke-width:2.85714293"
       d="m 56.571429,507.09111 v -340 h 340.000001 340 v 340 340 h -340 -340.000001 z"
       id="path24"
       inkscape:connector-curvature="0"
       transform="scale(0.26458333)" />
    <path
       style="fill:none;stroke-width:2.85714293"
       d="m 56.571429,507.09111 v -340 h 340.000001 340 v 340 340 h -340 -340.000001 z"
       id="path26"
       inkscape:connector-curvature="0"
       transform="scale(0.26458333)" />
    <path
       style="fill:none;stroke-width:2.85714293"
       d="m 56.571429,507.09111 v -340 h 340.000001 340 v 340 340 h -340 -340.000001 z"
       id="path30"
       inkscape:connector-curvature="0"
       transform="scale(0.26458333)"
       inkscape:export-xdpi="96"
       inkscape:export-ydpi="96" />
    <ellipse
       style="fill:#b3b3b3;stroke-width:0.38200381"
       id="path32"
       cy="133.87146"
       cx="104.54224"
       rx="88.480186"
       ry="88.858162" />
    <path
       style="fill:#666666;fill-opacity:1;stroke-width:0.05213231"
       id="path100-1"
       sodipodi:type="arc"
       sodipodi:cx="103.60984"
       sodipodi:cy="52.525272"
       sodipodi:rx="6.5"
       sodipodi:ry="6.5"
       sodipodi:start="0"
       sodipodi:end="6.2820745"
       d="m 110.10984,52.525272 a 6.5,6.5 0 0 1 -6.49819,6.5 6.5,6.5 0 0 1 -6.501809,-6.49639 6.5,6.5 0 0 1 6.494589,-6.503607 6.5,6.5 0 0 1 6.50541,6.492777 l -6.5,0.0072 z" />
    <flowRoot
       xml:space="preserve"
       id="flowRoot874"
       style="font-style:normal;font-weight:normal;font-size:40px;line-height:1.25;font-family:sans-serif;letter-spacing:0px;word-spacing:0px;fill:#000000;fill-opacity:1;stroke:none"
       transform="scale(0.26458333)"><flowRegion
         id="flowRegion876"><rect
           id="rect878"
           width="415.88614"
           height="432.43881"
           x="145.87051"
           y="309.3692" /></flowRegion><flowPara
         id="flowPara880"
         style="font-size:666.66668701px">E</flowPara></flowRoot>    <flowRoot
       xml:space="preserve"
       id="flowRoot882"
       style="font-style:normal;font-weight:normal;font-size:40px;line-height:1.25;font-family:sans-serif;letter-spacing:0px;word-spacing:0px;fill:#000000;fill-opacity:1;stroke:none"><flowRegion
         id="flowRegion884"><rect
           id="rect886"
           width="234.84117"
           height="198.63219"
           x="183.11404"
           y="375.57993" /></flowRegion><flowPara
         id="flowPara888" /></flowRoot>    <path
       style="fill:#cccccc;fill-opacity:1;stroke-width:0.26691023;stroke-miterlimit:4;stroke-dasharray:none"
       id="path2118"
       sodipodi:type="arc"
       sodipodi:cx="104.63093"
       sodipodi:cy="134.0661"
       sodipodi:rx="73.454987"
       sodipodi:ry="72.826324"
       sodipodi:start="0"
       sodipodi:end="6.2821556"
       d="M 178.08591,134.0661 A 73.454987,72.826324 0 0 1 104.64984,206.89242 73.454987,72.826324 0 0 1 31.175951,134.1036 73.454987,72.826324 0 0 1 104.5742,61.239798 73.454987,72.826324 0 0 1 178.08588,133.99111 l -73.45495,0.075 z" />
    <flowRoot
       xml:space="preserve"
       id="flowRoot894"
       style="font-style:normal;font-weight:normal;font-size:40px;line-height:1.25;font-family:sans-serif;letter-spacing:0px;word-spacing:0px;fill:#000000;fill-opacity:1;stroke:none"><flowRegion
         id="flowRegion896"><rect
           id="rect898"
           width="16.552681"
           height="76.556152"
           x="241.04843"
           y="243.15846" /></flowRegion><flowPara
         id="flowPara900" /></flowRoot>    <path
       style="fill:#666666;fill-opacity:1;stroke-width:0.39156485;stroke-miterlimit:4;stroke-dasharray:none"
       id="path1093"
       sodipodi:type="arc"
       sodipodi:cx="104.30178"
       sodipodi:cy="103.05611"
       sodipodi:rx="26.347034"
       sodipodi:ry="25.146692"
       sodipodi:start="0"
       sodipodi:end="6.2821556"
       d="M 130.64882,103.05611 A 26.347034,25.146692 0 0 1 104.30856,128.2028 26.347034,25.146692 0 0 1 77.95475,103.06905 26.347034,25.146692 0 0 1 104.28143,77.909422 26.347034,25.146692 0 0 1 130.6488,103.03021 l -26.34702,0.0259 z" />
    <path
       style="fill:#cccccc;fill-opacity:1;stroke-width:0.59284753;stroke-miterlimit:4;stroke-dasharray:none"
       id="path1095"
       sodipodi:type="arc"
       sodipodi:cx="104.30178"
       sodipodi:cy="101.35609"
       sodipodi:rx="17.288351"
       sodipodi:ry="17.269501"
       sodipodi:start="0"
       sodipodi:end="6.2821556"
       d="m 121.59013,101.35609 a 17.288351,17.269501 0 0 1 -17.2839,17.2695 17.288351,17.269501 0 0 1 -17.292798,-17.26061 17.288351,17.269501 0 0 1 17.274998,-17.278389 17.288351,17.269501 0 0 1 17.30169,17.251709 l -17.28834,0.0178 z" />
    <rect
       style="fill:#666666;fill-opacity:1;stroke-width:0.95226341;stroke-miterlimit:4;stroke-dasharray:none"
       id="rect9270"
       width="78.562073"
       height="83.618172"
       x="65.416695"
       y="102.43973"
       ry="6.9973388" />
    <path
       style="fill:#666666;fill-opacity:1;stroke-width:0.05213231"
       id="path100-1-3"
       sodipodi:type="arc"
       sodipodi:cx="185.14252"
       sodipodi:cy="134.80382"
       sodipodi:rx="6.5"
       sodipodi:ry="6.5"
       sodipodi:start="0"
       sodipodi:end="6.2820745"
       d="m 191.64252,134.80382 a 6.5,6.5 0 0 1 -6.4982,6.5 6.5,6.5 0 0 1 -6.5018,-6.49639 6.5,6.5 0 0 1 6.49458,-6.50361 6.5,6.5 0 0 1 6.50541,6.49278 l -6.49999,0.007 z" />
    <path
       style="fill:#666666;fill-opacity:1;stroke-width:0.05213231"
       id="path100-1-3-5"
       sodipodi:type="arc"
       sodipodi:cx="104.04444"
       sodipodi:cy="214.95891"
       sodipodi:rx="6.5"
       sodipodi:ry="6.5"
       sodipodi:start="0"
       sodipodi:end="6.2820745"
       d="m 110.54444,214.95891 a 6.5,6.5 0 0 1 -6.49819,6.5 6.5,6.5 0 0 1 -6.501808,-6.49639 6.5,6.5 0 0 1 6.494588,-6.50361 6.5,6.5 0 0 1 6.50541,6.49278 l -6.5,0.007 z" />
    <path
       style="fill:#666666;fill-opacity:1;stroke-width:0.05213231"
       id="path100-1-3-5-9"
       sodipodi:type="arc"
       sodipodi:cx="23.575026"
       sodipodi:cy="134.48949"
       sodipodi:rx="6.5"
       sodipodi:ry="6.5"
       sodipodi:start="0"
       sodipodi:end="6.2820745"
       d="m 30.075026,134.48949 a 6.5,6.5 0 0 1 -6.498195,6.5 6.5,6.5 0 0 1 -6.501804,-6.49639 6.5,6.5 0 0 1 6.494583,-6.50361 6.5,6.5 0 0 1 6.505412,6.49278 l -6.499996,0.007 z" />
    <path
       style="fill:#666666;fill-opacity:1;stroke-width:0.05213231"
       id="path100-1-3-5-9-3"
       sodipodi:type="arc"
       sodipodi:cx="45.578381"
       sodipodi:cy="77.909431"
       sodipodi:rx="6.5"
       sodipodi:ry="6.5"
       sodipodi:start="0"
       sodipodi:end="6.2820745"
       d="m 52.078381,77.909431 a 6.5,6.5 0 0 1 -6.498195,6.5 6.5,6.5 0 0 1 -6.501804,-6.496389 6.5,6.5 0 0 1 6.494583,-6.503608 6.5,6.5 0 0 1 6.505412,6.492777 l -6.499996,0.0072 z" />
    <path
       style="fill:#666666;fill-opacity:1;stroke-width:0.05213231"
       id="path100-1-3-5-9-4"
       sodipodi:type="arc"
       sodipodi:cx="46.20705"
       sodipodi:cy="190.44089"
       sodipodi:rx="6.5"
       sodipodi:ry="6.5"
       sodipodi:start="0"
       sodipodi:end="6.2820745"
       d="m 52.70705,190.44089 a 6.5,6.5 0 0 1 -6.498195,6.5 6.5,6.5 0 0 1 -6.501804,-6.49639 6.5,6.5 0 0 1 6.494584,-6.50361 6.5,6.5 0 0 1 6.505411,6.49278 l -6.499996,0.007 z" />
    <path
       style="fill:#666666;fill-opacity:1;stroke-width:0.05213231"
       id="path100-1-3-5-9-3-1"
       sodipodi:type="arc"
       sodipodi:cx="165.96817"
       sodipodi:cy="80.109764"
       sodipodi:rx="6.5"
       sodipodi:ry="6.5"
       sodipodi:start="0"
       sodipodi:end="6.2820745"
       d="m 172.46817,80.109764 a 6.5,6.5 0 0 1 -6.49819,6.5 6.5,6.5 0 0 1 -6.50181,-6.49639 6.5,6.5 0 0 1 6.49458,-6.503608 6.5,6.5 0 0 1 6.50542,6.492778 l -6.5,0.0072 z" />
    <path
       style="fill:#666666;fill-opacity:1;stroke-width:0.05213231"
       id="path100-1-3-5-5"
       sodipodi:type="arc"
       sodipodi:cx="163.13918"
       sodipodi:cy="190.75522"
       sodipodi:rx="6.5"
       sodipodi:ry="6.5"
       sodipodi:start="0"
       sodipodi:end="6.2820745"
       d="m 169.63918,190.75522 a 6.5,6.5 0 0 1 -6.4982,6.5 6.5,6.5 0 0 1 -6.5018,-6.49639 6.5,6.5 0 0 1 6.49458,-6.50361 6.5,6.5 0 0 1 6.50541,6.49278 l -6.49999,0.007 z" />
    <path
       style="fill:#b3b3b3;fill-opacity:1;stroke-width:0.49044573;stroke-miterlimit:4;stroke-dasharray:none"
       id="path1105"
       sodipodi:type="arc"
       sodipodi:cx="105.012"
       sodipodi:cy="143.71278"
       sodipodi:rx="25"
       sodipodi:ry="25"
       sodipodi:start="0"
       sodipodi:end="6.2821556"
       d="m 130.012,143.71278 a 25,25 0 0 1 -24.99356,25 25,25 0 0 1 -25.006436,-24.98712 25,25 0 0 1 24.980686,-25.01287 25,25 0 0 1 25.0193,24.97425 l -24.99999,0.0257 z" />
    <flowRoot
       xml:space="preserve"
       id="flowRoot1097"
       style="font-style:normal;font-variant:normal;font-weight:normal;font-stretch:normal;font-size:40px;line-height:1.25;font-family:'Arial Black';-inkscape-font-specification:'Arial Black, ';letter-spacing:0px;word-spacing:0px;fill:#1a1a1a;fill-opacity:1;stroke:none"
       transform="matrix(1.2303172,0,0,1.2303172,-352.03251,-494.47614)"><flowRegion
         id="flowRegion1099"
         style="font-style:normal;font-variant:normal;font-weight:normal;font-stretch:normal;font-family:'Arial Black';-inkscape-font-specification:'Arial Black, ';fill:#1a1a1a"><rect
           id="rect1101"
           width="89.102455"
           height="87.914429"
           x="356.40982"
           y="497.61444"
           style="font-style:normal;font-variant:normal;font-weight:normal;font-stretch:normal;font-family:'Arial Black';-inkscape-font-specification:'Arial Black, ';fill:#1a1a1a" /></flowRegion><flowPara
         id="flowPara1103">E</flowPara></flowRoot>    <path
       style="fill:#808080;fill-opacity:1;stroke-width:0.02005089"
       id="path100-1-30-1"
       sodipodi:type="arc"
       sodipodi:cx="114.03168"
       sodipodi:cy="130.382"
       sodipodi:rx="2.5"
       sodipodi:ry="2.5"
       sodipodi:start="0"
       sodipodi:end="6.2820745"
       d="m 116.53168,130.382 a 2.5,2.5 0 0 1 -2.49931,2.5 2.5,2.5 0 0 1 -2.50069,-2.49861 2.5,2.5 0 0 1 2.49791,-2.50139 2.5,2.5 0 0 1 2.50209,2.49723 l -2.5,0.003 z" />
    <path
       style="fill:#808080;fill-opacity:1;stroke-width:0.02005089"
       id="path100-1-30-1-8"
       sodipodi:type="arc"
       sodipodi:cx="95.243095"
       sodipodi:cy="142.9765"
       sodipodi:rx="2.5"
       sodipodi:ry="2.5"
       sodipodi:start="0"
       sodipodi:end="6.2820745"
       d="m 97.743095,142.9765 a 2.5,2.5 0 0 1 -2.499305,2.5 2.5,2.5 0 0 1 -2.500694,-2.49861 2.5,2.5 0 0 1 2.497917,-2.50139 2.5,2.5 0 0 1 2.502081,2.49722 l -2.499999,0.003 z" />
    <path
       style="fill:#808080;fill-opacity:1;stroke-width:0.02005089"
       id="path100-1-30-1-3"
       sodipodi:type="arc"
       sodipodi:cx="114.074"
       sodipodi:cy="143.29083"
       sodipodi:rx="2.5"
       sodipodi:ry="2.5"
       sodipodi:start="0"
       sodipodi:end="6.2820745"
       d="m 116.574,143.29083 a 2.5,2.5 0 0 1 -2.49931,2.5 2.5,2.5 0 0 1 -2.50069,-2.49861 2.5,2.5 0 0 1 2.49791,-2.50139 2.5,2.5 0 0 1 2.50209,2.49723 l -2.5,0.003 z" />
    <path
       style="fill:#808080;fill-opacity:1;stroke-width:0.02005089"
       id="path100-1-30-1-0"
       sodipodi:type="arc"
       sodipodi:cx="95.213997"
       sodipodi:cy="157.972"
       sodipodi:rx="2.5"
       sodipodi:ry="2.5"
       sodipodi:start="0"
       sodipodi:end="6.2820745"
       d="m 97.713997,157.972 a 2.5,2.5 0 0 1 -2.499306,2.5 2.5,2.5 0 0 1 -2.500694,-2.49861 2.5,2.5 0 0 1 2.497917,-2.50139 2.5,2.5 0 0 1 2.502081,2.49722 l -2.499998,0.003 z" />
    <path
       style="fill:#808080;fill-opacity:1;stroke-width:0.02005089"
       id="path100-1-30-1-02"
       sodipodi:type="arc"
       sodipodi:cx="114.074"
       sodipodi:cy="157.972"
       sodipodi:rx="2.5"
       sodipodi:ry="2.5"
       sodipodi:start="0"
       sodipodi:end="6.2820745"
       d="m 116.574,157.972 a 2.5,2.5 0 0 1 -2.49931,2.5 2.5,2.5 0 0 1 -2.50069,-2.49861 2.5,2.5 0 0 1 2.49791,-2.50139 2.5,2.5 0 0 1 2.50209,2.49722 l -2.5,0.003 z" />
    <path
       style="fill:#808080;fill-opacity:1;stroke-width:0.02005089"
       id="path100-1-30-1-9"
       sodipodi:type="arc"
       sodipodi:cx="95.243103"
       sodipodi:cy="130.40315"
       sodipodi:rx="2.5"
       sodipodi:ry="2.5"
       sodipodi:start="0"
       sodipodi:end="6.2820745"
       d="m 97.743103,130.40315 a 2.5,2.5 0 0 1 -2.499306,2.5 2.5,2.5 0 0 1 -2.500694,-2.49861 2.5,2.5 0 0 1 2.497917,-2.50139 2.5,2.5 0 0 1 2.502081,2.49723 l -2.499998,0.003 z" />
    <flowRoot
       xml:space="preserve"
       id="flowRoot858"
       style="font-style:normal;font-variant:normal;font-weight:normal;font-stretch:normal;font-size:40px;line-height:1.25;font-family:'Arial Black';-inkscape-font-specification:'Arial Black, ';letter-spacing:0px;word-spacing:0px;fill:#000000;fill-opacity:1;stroke:none"
       transform="matrix(1.9031465,0,0,3.1142496,392.42298,-1172.8809)"><flowRegion
         id="flowRegion860"
         style="font-style:normal;font-variant:normal;font-weight:normal;font-stretch:normal;font-family:'Arial Black';-inkscape-font-specification:'Arial Black, '"><rect
           id="rect862"
           width="1050.2209"
           height="434.82001"
           x="-308.88852"
           y="444.76953"
           style="font-style:normal;font-variant:normal;font-weight:normal;font-stretch:normal;font-family:'Arial Black';-inkscape-font-specification:'Arial Black, '" /></flowRegion><flowPara
         id="flowPara864">EAuthenticator</flowPara></flowRoot>  </g>
</svg>
